<svg width="118" height="132" viewBox="0 0 118 132" fill="none" xmlns="http://www.w3.org/2000/svg">
<mask id="path-2-outside-1_1_444" maskUnits="userSpaceOnUse" x="8" y="8" width="102" height="124" fill="black">
<rect fill="white" x="8" y="8" width="102" height="124"/>
<path fill-rule="evenodd" clip-rule="evenodd" d="M12 109C10.3431 109 9 107.657 9 106V12C9 10.3431 10.3431 9 12 9H106C107.657 9 109 10.3431 109 12V40.7509C109 43.0108 106.528 44.5173 104.294 44.1744C103.546 44.0596 102.78 44 102 44C93.7157 44 87 50.7157 87 59C87 67.2843 93.7157 74 102 74C102.78 74 103.546 73.9404 104.294 73.8256C106.528 73.4827 109 74.9892 109 77.249V106C109 107.657 107.657 109 106 109H77.2491C74.9892 109 73.4827 111.472 73.8256 113.706C73.9404 114.454 74 115.22 74 116C74 124.284 67.2843 131 59 131C50.7157 131 44 124.284 44 116C44 115.22 44.0596 114.454 44.1744 113.706C44.5173 111.472 43.0108 109 40.751 109H12Z"/>
</mask>
<path fill-rule="evenodd" clip-rule="evenodd" d="M12 109C10.3431 109 9 107.657 9 106V12C9 10.3431 10.3431 9 12 9H106C107.657 9 109 10.3431 109 12V40.7509C109 43.0108 106.528 44.5173 104.294 44.1744C103.546 44.0596 102.78 44 102 44C93.7157 44 87 50.7157 87 59C87 67.2843 93.7157 74 102 74C102.78 74 103.546 73.9404 104.294 73.8256C106.528 73.4827 109 74.9892 109 77.249V106C109 107.657 107.657 109 106 109H77.2491C74.9892 109 73.4827 111.472 73.8256 113.706C73.9404 114.454 74 115.22 74 116C74 124.284 67.2843 131 59 131C50.7157 131 44 124.284 44 116C44 115.22 44.0596 114.454 44.1744 113.706C44.5173 111.472 43.0108 109 40.751 109H12Z" fill="#477CFE"/>
<path d="M8 12V106H10V12H8ZM106 8H12V10H106V8ZM110 40.7509V12H108V40.7509H110ZM102 45C102.729 45 103.445 45.0557 104.143 45.1628L104.446 43.186C103.648 43.0635 102.831 43 102 43V45ZM88 59C88 51.268 94.268 45 102 45V43C93.1634 43 86 50.1634 86 59H88ZM102 73C94.268 73 88 66.732 88 59H86C86 67.8366 93.1634 75 102 75V73ZM104.143 72.8372C103.445 72.9443 102.729 73 102 73V75C102.831 75 103.648 74.9365 104.446 74.814L104.143 72.8372ZM110 106V77.249H108V106H110ZM77.2491 110H106V108H77.2491V110ZM75 116C75 115.169 74.9365 114.352 74.814 113.554L72.8372 113.857C72.9443 114.555 73 115.271 73 116H75ZM59 132C67.8366 132 75 124.837 75 116H73C73 123.732 66.732 130 59 130V132ZM43 116C43 124.837 50.1634 132 59 132V130C51.268 130 45 123.732 45 116H43ZM43.186 113.554C43.0635 114.352 43 115.169 43 116H45C45 115.271 45.0557 114.555 45.1628 113.857L43.186 113.554ZM12 110H40.751V108H12V110ZM77.2491 108C75.7222 108 74.498 108.841 73.737 109.949C72.9817 111.049 72.6258 112.48 72.8372 113.857L74.814 113.554C74.6825 112.697 74.9084 111.776 75.3856 111.081C75.857 110.395 76.516 110 77.2491 110V108ZM108 106C108 107.105 107.105 108 106 108V110C108.209 110 110 108.209 110 106H108ZM108 40.7509C108 41.484 107.605 42.143 106.919 42.6144C106.224 43.0916 105.303 43.3175 104.446 43.186L104.143 45.1628C105.52 45.3742 106.951 45.0183 108.051 44.263C109.159 43.502 110 42.2778 110 40.7509H108ZM104.446 74.814C105.303 74.6825 106.224 74.9084 106.919 75.3856C107.605 75.857 108 76.516 108 77.249H110C110 75.7222 109.159 74.498 108.051 73.737C106.951 72.9817 105.52 72.6258 104.143 72.8372L104.446 74.814ZM45.1628 113.857C45.3742 112.48 45.0183 111.049 44.263 109.949C43.502 108.841 42.2778 108 40.751 108V110C41.484 110 42.143 110.395 42.6144 111.081C43.0916 111.776 43.3175 112.697 43.186 113.554L45.1628 113.857ZM106 10C107.105 10 108 10.8954 108 12H110C110 9.79086 108.209 8 106 8V10ZM8 106C8 108.209 9.79086 110 12 110V108C10.8954 108 10 107.105 10 106H8ZM10 12C10 10.8954 10.8954 10 12 10V8C9.79086 8 8 9.79086 8 12H10Z" fill="black" mask="url(#path-2-outside-1_1_444)"/>
</svg>
