<svg width="118" height="132" viewBox="0 0 118 132" fill="none" xmlns="http://www.w3.org/2000/svg">
<mask id="path-2-outside-1_1_468" maskUnits="userSpaceOnUse" x="8" y="0" width="102" height="124" fill="black">
<rect fill="white" x="8" width="102" height="124"/>
<path fill-rule="evenodd" clip-rule="evenodd" d="M44 16C44 16.7802 44.0596 17.5464 44.1744 18.2945C44.5173 20.5282 43.0108 23 40.7509 23H12C10.3431 23 9 24.3431 9 26V54.7509C9 57.0108 11.4718 58.5173 13.7055 58.1744C14.4536 58.0596 15.2198 58 16 58C24.2843 58 31 64.7157 31 73C31 81.2843 24.2843 88 16 88C15.2198 88 14.4536 87.9404 13.7055 87.8256C11.4718 87.4827 9 88.9892 9 91.2491V120C9 121.657 10.3431 123 12 123H106C107.657 123 109 121.657 109 120V26C109 24.3431 107.657 23 106 23H77.2491C74.9892 23 73.4827 20.5282 73.8256 18.2945C73.9404 17.5464 74 16.7802 74 16C74 7.71573 67.2843 1 59 1C50.7157 1 44 7.71573 44 16Z"/>
</mask>
<path fill-rule="evenodd" clip-rule="evenodd" d="M44 16C44 16.7802 44.0596 17.5464 44.1744 18.2945C44.5173 20.5282 43.0108 23 40.7509 23H12C10.3431 23 9 24.3431 9 26V54.7509C9 57.0108 11.4718 58.5173 13.7055 58.1744C14.4536 58.0596 15.2198 58 16 58C24.2843 58 31 64.7157 31 73C31 81.2843 24.2843 88 16 88C15.2198 88 14.4536 87.9404 13.7055 87.8256C11.4718 87.4827 9 88.9892 9 91.2491V120C9 121.657 10.3431 123 12 123H106C107.657 123 109 121.657 109 120V26C109 24.3431 107.657 23 106 23H77.2491C74.9892 23 73.4827 20.5282 73.8256 18.2945C73.9404 17.5464 74 16.7802 74 16C74 7.71573 67.2843 1 59 1C50.7157 1 44 7.71573 44 16Z" fill="#AA3731"/>
<path d="M13.7055 58.1744L13.5538 57.186L13.7055 58.1744ZM73.8256 18.2945L72.8372 18.1428L73.8256 18.2945ZM45.1628 18.1428C45.0557 17.4447 45 16.7292 45 16H43C43 16.8311 43.0635 17.6481 43.186 18.4462L45.1628 18.1428ZM12 24H40.7509V22H12V24ZM10 54.7509V26H8V54.7509H10ZM13.8572 59.1628C14.5553 59.0557 15.2708 59 16 59V57C15.1689 57 14.3519 57.0635 13.5538 57.186L13.8572 59.1628ZM16 59C23.732 59 30 65.268 30 73H32C32 64.1634 24.8366 57 16 57V59ZM30 73C30 80.732 23.732 87 16 87V89C24.8366 89 32 81.8366 32 73H30ZM16 87C15.2708 87 14.5553 86.9443 13.8572 86.8372L13.5538 88.814C14.3519 88.9365 15.1689 89 16 89V87ZM10 120V91.2491H8V120H10ZM106 122H12V124H106V122ZM108 26V120H110V26H108ZM77.2491 24H106V22H77.2491V24ZM73 16C73 16.7292 72.9443 17.4447 72.8372 18.1428L74.814 18.4462C74.9365 17.6481 75 16.8311 75 16H73ZM59 2C66.732 2 73 8.26801 73 16H75C75 7.16344 67.8366 0 59 0V2ZM45 16C45 8.26801 51.268 2 59 2V0C50.1634 0 43 7.16345 43 16H45ZM110 26C110 23.7909 108.209 22 106 22V24C107.105 24 108 24.8954 108 26H110ZM106 124C108.209 124 110 122.209 110 120H108C108 121.105 107.105 122 106 122V124ZM8 120C8 122.209 9.79086 124 12 124V122C10.8954 122 10 121.105 10 120H8ZM8 54.7509C8 56.2778 8.84101 57.502 9.94894 58.263C11.0485 59.0183 12.4803 59.3742 13.8572 59.1628L13.5538 57.186C12.697 57.3175 11.776 57.0916 11.0813 56.6144C10.3949 56.143 10 55.484 10 54.7509H8ZM13.8572 86.8372C12.4803 86.6258 11.0485 86.9817 9.94894 87.737C8.84101 88.498 8 89.7222 8 91.2491H10C10 90.516 10.3949 89.857 11.0813 89.3856C11.776 88.9084 12.697 88.6825 13.5538 88.814L13.8572 86.8372ZM12 22C9.79086 22 8 23.7909 8 26H10C10 24.8954 10.8954 24 12 24V22ZM77.2491 22C76.516 22 75.857 21.6051 75.3856 20.9187C74.9084 20.224 74.6825 19.303 74.814 18.4462L72.8372 18.1428C72.6258 19.5197 72.9817 20.9515 73.737 22.0511C74.498 23.159 75.7222 24 77.2491 24V22ZM43.186 18.4462C43.3175 19.303 43.0916 20.224 42.6144 20.9187C42.1429 21.6051 41.484 22 40.7509 22V24C42.2778 24 43.502 23.159 44.263 22.0511C45.0182 20.9515 45.3742 19.5197 45.1628 18.1428L43.186 18.4462Z" fill="black" mask="url(#path-2-outside-1_1_468)"/>
</svg>
