<svg width="132" height="118" viewBox="0 0 132 118" fill="none" xmlns="http://www.w3.org/2000/svg">
<mask id="path-2-outside-1_1_480" maskUnits="userSpaceOnUse" x="0" y="8" width="124" height="102" fill="black">
<rect fill="white" y="8" width="124" height="102"/>
<path fill-rule="evenodd" clip-rule="evenodd" d="M26 109C24.3431 109 23 107.657 23 106L23 77.2491C23 74.9892 20.5282 73.4827 18.2945 73.8256C17.5464 73.9404 16.7802 74 16 74C7.71573 74 1 67.2843 1 59C1 50.7157 7.71573 44 16 44C16.7802 44 17.5464 44.0596 18.2945 44.1744C20.5282 44.5173 23 43.0108 23 40.7509V12C23 10.3431 24.3431 9 26 9L120 9C121.657 9 123 10.3431 123 12V106C123 107.657 121.657 109 120 109H91.2491C88.9892 109 87.4827 106.528 87.8256 104.294C87.9404 103.546 88 102.78 88 102C88 93.7157 81.2843 87 73 87C64.7157 87 58 93.7157 58 102C58 102.78 58.0596 103.546 58.1744 104.294C58.5173 106.528 57.0108 109 54.751 109L26 109Z"/>
</mask>
<path fill-rule="evenodd" clip-rule="evenodd" d="M26 109C24.3431 109 23 107.657 23 106L23 77.2491C23 74.9892 20.5282 73.4827 18.2945 73.8256C17.5464 73.9404 16.7802 74 16 74C7.71573 74 1 67.2843 1 59C1 50.7157 7.71573 44 16 44C16.7802 44 17.5464 44.0596 18.2945 44.1744C20.5282 44.5173 23 43.0108 23 40.7509V12C23 10.3431 24.3431 9 26 9L120 9C121.657 9 123 10.3431 123 12V106C123 107.657 121.657 109 120 109H91.2491C88.9892 109 87.4827 106.528 87.8256 104.294C87.9404 103.546 88 102.78 88 102C88 93.7157 81.2843 87 73 87C64.7157 87 58 93.7157 58 102C58 102.78 58.0596 103.546 58.1744 104.294C58.5173 106.528 57.0108 109 54.751 109L26 109Z" fill="#F5A10A"/>
<path d="M1 59L0 59L0 59L1 59ZM58.1744 104.294L57.186 104.446L58.1744 104.294ZM54.751 109V108V109ZM120 9V10V9ZM26 9V10V9ZM26 109L26 110L26 109ZM18.2945 44.1744L18.4462 43.186L18.2945 44.1744ZM18.2945 73.8256L18.1428 72.8372L18.2945 73.8256ZM22 77.2491L22 106H24L24 77.2491H22ZM16 75C16.8311 75 17.6481 74.9365 18.4462 74.814L18.1428 72.8372C17.4447 72.9443 16.7292 73 16 73V75ZM0 59C2.03451e-06 67.8366 7.16345 75 16 75V73C8.26802 73 2 66.732 2 59L0 59ZM16 43C7.16344 43 0 50.1634 0 59H2C2 51.268 8.26801 45 16 45V43ZM18.4462 43.186C17.6481 43.0635 16.8311 43 16 43V45C16.7292 45 17.4447 45.0557 18.1428 45.1628L18.4462 43.186ZM22 12V40.7509H24V12H22ZM120 8L26 8V10L120 10V8ZM124 106V12H122V106H124ZM91.2491 110H120V108H91.2491V110ZM87 102C87 102.729 86.9443 103.445 86.8372 104.143L88.814 104.446C88.9365 103.648 89 102.831 89 102H87ZM73 88C80.732 88 87 94.268 87 102H89C89 93.1634 81.8366 86 73 86V88ZM59 102C59 94.268 65.268 88 73 88V86C64.1634 86 57 93.1634 57 102H59ZM59.1628 104.143C59.0557 103.445 59 102.729 59 102H57C57 102.831 57.0635 103.648 57.186 104.446L59.1628 104.143ZM26 110L54.751 110V108L26 108L26 110ZM57.186 104.446C57.3175 105.303 57.0916 106.224 56.6144 106.919C56.143 107.605 55.484 108 54.751 108V110C56.2778 110 57.502 109.159 58.263 108.051C59.0183 106.951 59.3742 105.52 59.1628 104.143L57.186 104.446ZM91.2491 108C90.516 108 89.857 107.605 89.3856 106.919C88.9084 106.224 88.6825 105.303 88.814 104.446L86.8372 104.143C86.6258 105.52 86.9817 106.951 87.737 108.051C88.498 109.159 89.7222 110 91.2491 110V108ZM122 106C122 107.105 121.105 108 120 108V110C122.209 110 124 108.209 124 106H122ZM120 10C121.105 10 122 10.8954 122 12H124C124 9.79086 122.209 8 120 8V10ZM24 12C24 10.8954 24.8954 10 26 10V8C23.7909 8 22 9.79086 22 12H24ZM22 106C22 108.209 23.7909 110 26 110V108C24.8954 108 24 107.105 24 106H22ZM18.1428 45.1628C19.5197 45.3742 20.9515 45.0183 22.0511 44.263C23.159 43.502 24 42.2778 24 40.7509H22C22 41.484 21.6051 42.143 20.9187 42.6144C20.224 43.0916 19.303 43.3175 18.4462 43.186L18.1428 45.1628ZM24 77.2491C24 75.7222 23.159 74.498 22.0511 73.737C20.9515 72.9817 19.5197 72.6258 18.1428 72.8372L18.4462 74.814C19.303 74.6825 20.224 74.9084 20.9187 75.3856C21.6051 75.857 22 76.516 22 77.2491H24Z" fill="black" mask="url(#path-2-outside-1_1_480)"/>
</svg>
