<svg width="132" height="118" viewBox="0 0 132 118" fill="none" xmlns="http://www.w3.org/2000/svg">
<mask id="path-2-outside-1_1_456" maskUnits="userSpaceOnUse" x="8" y="8" width="124" height="102" fill="black">
<rect fill="white" x="8" y="8" width="124" height="102"/>
<path fill-rule="evenodd" clip-rule="evenodd" d="M44.1744 13.7055C44.5173 11.4718 43.0108 9 40.7509 9H12C10.3431 9 9 10.3431 9 12V106C9 107.657 10.3431 109 12 109H106C107.657 109 109 107.657 109 106V77.249C109 74.9892 111.472 73.4827 113.706 73.8256C114.454 73.9404 115.22 74 116 74C124.284 74 131 67.2843 131 59C131 50.7157 124.284 44 116 44C115.22 44 114.454 44.0596 113.706 44.1744C111.472 44.5173 109 43.0108 109 40.7509V12C109 10.3431 107.657 9 106 9H77.2491C74.9892 9 73.4828 11.4718 73.8256 13.7055C73.9404 14.4536 74 15.2198 74 16C74 24.2843 67.2843 31 59 31C50.7157 31 44 24.2843 44 16C44 15.2198 44.0596 14.4536 44.1744 13.7055Z"/>
</mask>
<path fill-rule="evenodd" clip-rule="evenodd" d="M44.1744 13.7055C44.5173 11.4718 43.0108 9 40.7509 9H12C10.3431 9 9 10.3431 9 12V106C9 107.657 10.3431 109 12 109H106C107.657 109 109 107.657 109 106V77.249C109 74.9892 111.472 73.4827 113.706 73.8256C114.454 73.9404 115.22 74 116 74C124.284 74 131 67.2843 131 59C131 50.7157 124.284 44 116 44C115.22 44 114.454 44.0596 113.706 44.1744C111.472 44.5173 109 43.0108 109 40.7509V12C109 10.3431 107.657 9 106 9H77.2491C74.9892 9 73.4828 11.4718 73.8256 13.7055C73.9404 14.4536 74 15.2198 74 16C74 24.2843 67.2843 31 59 31C50.7157 31 44 24.2843 44 16C44 15.2198 44.0596 14.4536 44.1744 13.7055Z" fill="#9747FF"/>
<path d="M59 31L59 32L59 32L59 31ZM73.8256 13.7055L74.814 13.5538L73.8256 13.7055ZM113.706 44.1744L113.554 43.186L113.706 44.1744ZM40.7509 8H12V10H40.7509V8ZM8 12V106H10V12H8ZM12 110H106V108H12V110ZM110 106V77.249H108V106H110ZM113.554 74.814C114.352 74.9365 115.169 75 116 75V73C115.271 73 114.555 72.9443 113.857 72.8372L113.554 74.814ZM116 75C124.837 75 132 67.8366 132 59H130C130 66.732 123.732 73 116 73V75ZM132 59C132 50.1634 124.837 43 116 43V45C123.732 45 130 51.268 130 59H132ZM116 43C115.169 43 114.352 43.0635 113.554 43.186L113.857 45.1628C114.555 45.0557 115.271 45 116 45V43ZM110 40.7509V12H108V40.7509H110ZM106 8H77.2491V10H106V8ZM72.8372 13.8573C72.9443 14.5553 73 15.2708 73 16H75C75 15.1689 74.9365 14.3519 74.814 13.5538L72.8372 13.8573ZM73 16C73 23.732 66.732 30 59 30L59 32C67.8366 32 75 24.8366 75 16H73ZM59 30C51.268 30 45 23.732 45 16H43C43 24.8366 50.1634 32 59 32V30ZM45 16C45 15.2708 45.0557 14.5553 45.1628 13.8572L43.186 13.5538C43.0635 14.3519 43 15.1689 43 16H45ZM77.2491 8C75.7222 8 74.498 8.84101 73.737 9.94894C72.9818 11.0485 72.6258 12.4803 72.8372 13.8573L74.814 13.5538C74.6825 12.697 74.9084 11.776 75.3856 11.0813C75.8571 10.3949 76.516 10 77.2491 10V8ZM110 12C110 9.79086 108.209 8 106 8V10C107.105 10 108 10.8954 108 12H110ZM113.554 43.186C112.697 43.3175 111.776 43.0916 111.081 42.6144C110.395 42.143 110 41.484 110 40.7509H108C108 42.2778 108.841 43.502 109.949 44.263C111.049 45.0183 112.48 45.3742 113.857 45.1628L113.554 43.186ZM110 77.249C110 76.516 110.395 75.857 111.081 75.3856C111.776 74.9084 112.697 74.6825 113.554 74.814L113.857 72.8372C112.48 72.6258 111.049 72.9817 109.949 73.737C108.841 74.498 108 75.7222 108 77.249H110ZM106 110C108.209 110 110 108.209 110 106H108C108 107.105 107.105 108 106 108V110ZM8 106C8 108.209 9.79086 110 12 110V108C10.8954 108 10 107.105 10 106H8ZM12 8C9.79086 8 8 9.79086 8 12H10C10 10.8954 10.8954 10 12 10V8ZM40.7509 10C41.484 10 42.143 10.3949 42.6144 11.0813C43.0916 11.776 43.3175 12.697 43.186 13.5538L45.1628 13.8572C45.3742 12.4803 45.0183 11.0485 44.263 9.94894C43.502 8.84101 42.2778 8 40.7509 8V10Z" fill="black" mask="url(#path-2-outside-1_1_456)"/>
</svg>
