<svg width="128" height="128" viewBox="0 0 128 128" fill="none" xmlns="http://www.w3.org/2000/svg">
<rect x="20" y="34" width="91" height="62" fill="#F7CA00"/>
<path d="M7 46.28V96.28H119.5V30.28H7V46.28ZM88.084 42C90.4791 42.5558 92.656 43.8085 94.34 45.6C95.2671 46.5652 96.073 47.6398 96.74 48.8C96.74 48.928 92.42 51.848 89.788 53.48C89.692 53.544 89.308 53.128 88.884 52.496C88.4035 51.6669 87.7208 50.9731 86.8997 50.4793C86.0785 49.9855 85.1456 49.7077 84.188 49.672C81.156 49.464 79.204 51.056 79.22 53.672C79.1949 54.3233 79.3441 54.9695 79.652 55.544C80.316 56.928 81.556 57.752 85.444 59.432C92.604 62.512 95.668 64.544 97.572 67.432C99.7 70.632 100.172 75.8 98.732 79.624C97.132 83.784 93.212 86.608 87.668 87.544C85.1359 87.834 82.5775 87.8071 80.052 87.464C76.1813 86.826 72.6159 84.9676 69.876 82.16C68.956 81.144 67.164 78.496 67.276 78.304C67.568 78.0872 67.8755 77.892 68.196 77.72L71.9 75.672L74.772 74.008L75.372 74.896C76.3846 76.3445 77.6732 77.5787 79.164 78.528C82.364 80.208 86.732 79.976 88.892 78.032C89.6172 77.3196 90.0697 76.3755 90.1705 75.364C90.2714 74.3524 90.0143 73.3375 89.444 72.496C88.644 71.384 87.044 70.448 82.572 68.496C77.412 66.272 75.188 64.896 73.156 62.704C71.8875 61.2575 70.9509 59.5509 70.412 57.704C70.01 55.594 69.9506 53.4329 70.236 51.304C71.3 46.32 75.036 42.84 80.492 41.808C83.0187 41.4954 85.5782 41.5655 88.084 42.016V42ZM64.612 46.192V50.288H51.628V87.272H42.42V50.28H29.404V46.28C29.3635 44.9006 29.3955 43.52 29.5 42.144C29.564 42.072 37.5 42.072 47.1 42.072H64.564L64.612 46.192Z" fill="#F7CA00"/>
<path d="M11.95 24.348C6.11403 24.348 1.33203 29.215 1.33203 35.029V92.971C1.33203 98.785 6.11403 103.652 11.949 103.652H116.051C121.886 103.652 126.668 98.785 126.668 92.971V35.03C126.668 29.216 121.885 24.349 116.051 24.349H14.898L14.896 24.347H11.95V24.348ZM11.943 33.891H116.051C116.676 33.891 117.127 34.314 117.127 35.031V92.971C117.127 93.688 116.674 94.111 116.051 94.111H11.949C11.326 94.111 10.873 93.688 10.873 92.971V35.029C10.873 34.314 11.324 33.894 11.943 33.891V33.891Z" fill="#F7CA00"/>
<path d="M19 84.2V44H30.699L42.396 58.78L54.089 44H65.785V84.2H54.089V61.144L42.395 75.924L30.697 61.144V84.2H19.001H19ZM92.104 84.2L74.559 64.691H86.256V44H97.954V64.69H109.652L92.104 84.2Z" fill="black"/>
</svg>
